<?xml version="1.0" encoding="UTF-8"?>
<svg id="Layer_1" data-name="Layer 1" xmlns="http://www.w3.org/2000/svg" viewBox="0 0 1190.55 841.89">
  <defs>
    <style>
      .cls-1 {
        fill: #fff;
      }
    </style>
  </defs>
  <g>
    <path class="cls-1" d="M806.52,306.29c65.74-3.8,121.8,17.75,117.39,93.68-4.49,77.36-75.08,104.45-141.61,112.58-8.34,1.02-17.95,5.08-19.16-5.41-4.57-39.68,4.51-86.79-1.28-127.04l-.93-63.32c.34-1.47,1.1-3,2.26-3.97,3.85-3.24,36.28-6.11,43.33-6.52ZM820.48,442.96c15.67-.97,30.46-6.89,37.87-21.32,11.03-21.48,7.44-57.19-21.19-60.77-4.62-.58-13.22-1.2-16.69,1.73v80.36Z"/>
    <path class="cls-1" d="M668.19,318.76c117.58-6.28,104.26,181.17,6.74,202.32-125.57,27.24-132.22-195.62-6.74-202.32ZM661.88,377.24c-38.93,6.58-37.12,97.15,9.51,78.02,31.25-12.82,28.3-84.41-9.51-78.02Z"/>
    <path class="cls-1" d="M493.71,342.43c109.33-5.47,99.02,168.23,13.07,197.43-130.65,44.39-146.97-190.73-13.07-197.43ZM483.67,400.91c-32.53,5.57-37.25,79.03-1.48,79.46,40.71.49,45.31-86.97,1.48-79.46Z"/>
    <path class="cls-1" d="M405.49,408.08l-71.03,9.97v22.42c14.82-.32,30.99-5.73,45.55-6.28,1.56-.06,5.54.23,5.54,1.92v46.1c-5.32,6.38-47.09,6.15-49.31,9.26l-.48,68.04c.04,1.86-.45,3.13-1.85,4.38-5.05,4.51-49.18,6.17-58.72,9.95l-5.03-1.19-1.8-4.42c-.64-48.12,1.62-96.66-1.24-144.52,1.88-13.59-2.36-33.36.08-46.12.64-3.36,3.75-5.03,6.94-5.52,39.62-2.84,81.54-15.13,120.78-17.53,3.45-.21,8.26-.99,10.58,1.85v51.7Z"/>
  </g>
  <g>
    <path class="cls-1" d="M467.27,315.32l-24.99,3.45c-2.55,1.65-2.02,14.82-7.12,16.01l-34.91,4.34c-.85-.87,1.9-9.46,2.41-11.25,9.11-31.49,22.12-62.49,31.06-94.13l3.32-3.73,36.79-4.56,4.1,2.97c7.16,29.05,19.67,58.06,26.81,86.92.58,2.33,3.03,9.36-.14,10.42l-32.32,4.45c-2.67-.86-4.39-12.03-5.01-14.89ZM461.11,291.52c.8-.81-4.86-19.51-5.76-22.03-.3-.85-.1-2.02-1.29-1.77l-6.18,25.56,13.22-1.76Z"/>
    <path class="cls-1" d="M574.86,250.97c-1.45,1.41-22.59-8.85-29.59-2.7-8.16,7.18,14.66,10.03,18.12,11.07,17.21,5.16,25.08,13.48,22.83,32.52-3.7,31.3-53.02,38.59-76.71,28.39-1.39-1.81-.9-9.63-.79-12.41.2-5.1.88-13.55,1.77-18.51.19-1.04.41-1.63,1.34-2.22,6.33,4.59,30.15,10.96,35.45,5.06,7.57-8.43-17.39-10.89-21.48-12-10.92-2.97-19.22-7.57-22.12-19.32-6.88-27.91,22.64-43.35,46.05-45.13,4.44-.34,27.48-.34,28.45,4.93l-3.33,30.32Z"/>
    <path class="cls-1" d="M415.25,259.35c-.22.79-2.12,2.13-3.15,2.14l-41.44,6.18-.38,10.64,28.86-4.19c.93-.29,2.88,1.68,2.88,1.98v22.92c0,.83-2.24,1.84-3.15,2.14-4.18,1.4-27.19,2.97-28.21,4.41-1.51,4.95,1.09,34.89-1.25,36.66-1.16.88-25.69,4.71-28.7,4.83-4.72.19-6.17.16-6.64-4.8-1.97-20.61.46-46.95.97-67.89.13-5.34-.98-29.34.78-31.84,1.49-2.11,6.81-2.45,9.45-2.9,21.86-3.66,44.29-4.59,66.06-8.98,1.13-.42,3.92,1.57,3.92,2.25v26.45Z"/>
    <path class="cls-1" d="M585.44,217.03c.4-2.31,2.95-2.73,4.93-2.98,20.72-2.58,43.45-4.64,64.29-6.27,4.09-.32,8.22-.05,12.29-.9l2.96,2.39c-.26,10.1,1.38,20.34-.25,30.25-2.02,3.56-21.91,1.4-22.54,4.1l-.39,67.31c-.66,1.32-3.22,2.14-4.63,2.43-9.11,1.82-19.83,1.42-29.03,3.69-1.12.54-3.84-1.55-3.84-2.17v-67.44l-22.78,2.5c-.13-.64-1.03-1.74-1.03-2.06,0-8.42-1.28-23.37,0-30.85Z"/>
  </g>
  <path class="cls-1" d="M849.14,527.69l-532.13,59.77,35.9-8.32c136.93-26.55,276.12-45.78,415.8-50.27,26.8-.86,53.7,1.26,80.43-1.18Z"/>
  <g>
    <path class="cls-1" d="M548.8,581.87c0-.31-1.02-.75-.97-1.25l1.75-1.71,10.43-1.4,1.24,46.08c-3.68-.7-7.73,2.21-11.16.66-5.22-2.35-14.86-20.81-21.22-24.32l1.2,27.37c-2.52-.5-11.44,2.97-12.08-.55l-1.45-42.31c.66-2.55,10.86-3.95,13.58-2.59.99.49,12.33,14.58,14.21,16.94,1.93,2.41,2.69,6.49,5.08,6.13,1.76-.21-.61-1.59-.61-1.88,0-7.06.04-14.12,0-21.18Z"/>
    <path class="cls-1" d="M663.46,567.55l11.21-1.25,1.26,44.86-12.83.07-19.58-23.74v23.05c0,.47,1.72,1.83,1.25,3.11l-12.47,1.26-.64-43.73c.71-1.34,11.07-1.41,13.09-.49,3.86,1.75,13.89,18.26,18.1,21.77,3.81.32.61-1.35.61-1.86v-23.05Z"/>
    <path class="cls-1" d="M481.18,585.28c38.4-7.26,38.18,47.76,2.14,48.32-28.94.45-28.93-43.26-2.14-48.32ZM482.39,596.47c-12.7,2.93-12.37,30.02,6.96,25.62,12.39-2.82,11.73-29.93-6.96-25.62Z"/>
    <polygon class="cls-1" points="719.54 561.31 718.37 571.98 697.1 573.77 697.09 580.54 718.28 578.76 718.3 588.73 698.34 589.96 698.36 598.69 720.77 594.95 720.79 606.17 687.08 609.38 685.16 566.25 719.54 561.31"/>
    <path class="cls-1" d="M582.45,576.27v33.64l19.93-2.49.95,9.39c-.59,3.17-27.45,3.72-32.09,5.55l-1.08-44.05,1.87-1.87,10.42-.17Z"/>
    <path class="cls-1" d="M621.08,571.29l1.3,44.02c-.59,2.55-10.2,2.14-12.52,2.08l-1.31-42.85,12.53-3.25Z"/>
    <path class="cls-1" d="M447.51,621.37c14.14-3.17,10.92,16.83-1.26,13.2-6.63-1.98-5.81-11.61,1.26-13.2Z"/>
  </g>
</svg>